<?xml version="1.0" encoding="UTF-8"?>
<!-- Generator: visioncortex VTracer 0.6.12 -->
<svg version="1.1" xmlns="http://www.w3.org/2000/svg" width="784" height="289">
<path d="M0 0 C0.387 0.034 0.387 0.034 2.344 0.203 C5.089 0.899 5.987 1.326 7.5 3.75 C8.303 10.429 6.598 14.723 3.5 20.562 C3.062 21.414 2.624 22.265 2.173 23.142 C-2.345 31.761 -7.362 40.088 -12.372 48.427 C-17.054 56.23 -21.546 64.12 -25.875 72.125 C-26.416 73.123 -26.957 74.121 -27.515 75.149 C-29.739 79.294 -31.811 83.354 -33.5 87.75 C-32.319 87.727 -31.138 87.704 -29.922 87.68 C-28.365 87.661 -26.807 87.643 -25.25 87.625 C-24.473 87.608 -23.695 87.591 -22.895 87.574 C-15.776 87.513 -15.776 87.513 -12.5 89.75 C-12.83 91.07 -13.16 92.39 -13.5 93.75 C-14.235 93.791 -14.97 93.833 -15.728 93.876 C-35.759 95.356 -35.759 95.356 -41.536 100.597 C-44.927 105.419 -46.679 110.913 -48.434 116.496 C-49.598 120.049 -50.956 123.478 -52.371 126.938 C-56.793 137.755 -60.909 148.626 -64.5 159.75 C-63.511 159.747 -62.523 159.744 -61.504 159.741 C59.917 159.493 59.917 159.493 97.5 179.75 C97.5 180.08 97.5 180.41 97.5 180.75 C90.674 180.287 83.903 179.582 77.125 178.664 C29.298 172.208 -18.314 171.125 -66.5 170.75 C-66.522 172.316 -66.538 173.883 -66.551 175.449 C-66.56 176.322 -66.57 177.194 -66.579 178.093 C-66.392 184.354 -64.984 189.524 -61.5 194.75 C-61.5 195.41 -61.5 196.07 -61.5 196.75 C-67.872 195.886 -71.923 192.065 -75.797 187.082 C-77.859 183.743 -79.007 180.275 -80.105 176.52 C-80.369 175.625 -80.632 174.73 -80.903 173.808 C-81.1 173.129 -81.297 172.45 -81.5 171.75 C-96.841 171.585 -112.066 171.958 -127.375 172.938 C-128.414 173.002 -129.452 173.067 -130.523 173.134 C-232.247 179.57 -334.336 197.04 -432.2 225.536 C-482.643 240.201 -482.643 240.201 -494.625 235.5 C-499.059 232.801 -499.059 232.801 -500.5 229.75 C-501.396 224.671 -500.263 221.966 -497.5 217.812 C-496.515 216.447 -495.52 215.089 -494.5 213.75 C-497.344 213.75 -498.719 214.079 -501.309 215.062 C-519.29 221.641 -519.29 221.641 -527.5 219.75 C-529.5 216.75 -529.5 216.75 -529.5 213.875 C-528.213 209.852 -525.867 208.075 -522.5 205.75 C-520.073 204.531 -517.766 203.481 -515.25 202.5 C-514.54 202.213 -513.83 201.927 -513.098 201.631 C-505.045 198.448 -496.819 195.714 -488.587 193.034 C-480.558 190.355 -473.804 187.076 -467.438 181.438 C-466.848 180.926 -466.259 180.414 -465.652 179.887 C-463.805 178.053 -462.131 176.184 -460.438 174.211 C-456.183 169.3 -451.614 164.713 -447.012 160.132 C-445.565 158.69 -444.123 157.243 -442.682 155.795 C-437.998 151.108 -433.256 146.541 -428.223 142.228 C-425.823 140.169 -423.51 138.02 -421.188 135.875 C-416.671 131.751 -412.009 127.871 -407.25 124.031 C-404.419 121.683 -401.706 119.241 -399 116.75 C-394.189 112.332 -389.22 108.178 -384.137 104.078 C-380.845 101.407 -377.582 98.699 -374.312 96 C-344.94 71.796 -344.94 71.796 -331.5 61.75 C-332.096 61.825 -332.692 61.9 -333.306 61.978 C-333.73 62.031 -333.73 62.031 -335.871 62.301 C-336.825 62.421 -337.778 62.541 -338.761 62.665 C-340.913 62.934 -343.065 63.201 -345.218 63.466 C-350.722 64.144 -356.22 64.843 -361.711 65.617 C-372.831 67.14 -383.769 68.03 -395 68.062 C-396.115 68.068 -397.231 68.073 -398.38 68.079 C-407.328 68.001 -415.319 67.563 -422.5 61.75 C-425.481 58.666 -426.146 55.997 -426.5 51.75 C-426.203 50.408 -425.876 49.072 -425.5 47.75 C-424.932 47.883 -424.363 48.016 -423.777 48.152 C-423.005 48.329 -422.233 48.506 -421.438 48.688 C-420.683 48.862 -419.929 49.036 -419.152 49.215 C-413.321 50.391 -407.605 50.915 -401.664 50.953 C-401.292 50.957 -401.292 50.957 -399.41 50.974 C-396.981 50.991 -394.553 50.998 -392.125 51 C-391.288 51.001 -390.451 51.003 -389.589 51.004 C-368.022 50.997 -346.867 48.891 -325.5 46.062 C-300.944 42.816 -300.944 42.816 -295.086 46.105 C-293.5 47.75 -293.5 47.75 -292.875 50.438 C-294.81 60.692 -305.88 67.51 -313.5 73.75 C-314.154 74.289 -314.808 74.827 -315.481 75.382 C-322.42 81.091 -329.423 86.714 -336.5 92.25 C-347.311 100.712 -358.041 109.222 -368.121 118.551 C-370.239 120.509 -372.385 122.421 -374.562 124.312 C-378.395 127.645 -382.171 131.038 -385.941 134.441 C-387.593 135.931 -389.246 137.418 -390.902 138.902 C-397.202 144.549 -403.437 150.264 -409.636 156.02 C-410.96 157.249 -412.284 158.476 -413.61 159.703 C-415.805 161.736 -417.997 163.774 -420.188 165.812 C-420.883 166.456 -421.579 167.099 -422.295 167.762 C-422.944 168.368 -423.593 168.974 -424.262 169.598 C-424.839 170.134 -425.416 170.67 -426.01 171.223 C-427.5 172.75 -427.5 172.75 -429.5 175.75 C-428.432 175.514 -427.364 175.278 -426.263 175.035 C-374.43 163.616 -322.494 154.585 -269.5 150.75 C-268.32 150.655 -267.139 150.56 -265.923 150.462 C-254.219 149.602 -242.522 149.564 -230.79 149.565 C-227.309 149.562 -223.827 149.544 -220.346 149.525 C-198.733 149.473 -198.733 149.473 -188.5 151.75 C-188.17 152.74 -187.84 153.73 -187.5 154.75 C-188.703 154.84 -189.905 154.93 -191.145 155.022 C-269.133 160.908 -350.188 169.971 -424.5 195.75 C-425.225 196 -425.951 196.249 -426.698 196.506 C-463.99 209.486 -463.99 209.486 -471.5 220.75 C-470.818 220.57 -470.136 220.389 -469.433 220.203 C-375.441 195.344 -281.412 174.969 -81.5 159.75 C-75.193 141.176 -69.297 122.487 -63.5 103.75 C-63.797 103.784 -63.797 103.784 -65.303 103.956 C-69.861 104.447 -74.317 104.772 -78.902 104.773 C-84.856 105.014 -90.364 105.521 -95.5 108.75 C-100.745 115.482 -102.919 124.076 -105.362 132.131 C-107.099 137.655 -109.285 142.967 -111.5 148.312 C-111.863 149.239 -112.225 150.166 -112.599 151.121 C-112.937 151.969 -113.276 152.817 -113.625 153.691 C-113.771 154.061 -113.771 154.061 -114.508 155.932 C-115.5 157.75 -115.5 157.75 -118.5 159.75 C-121.793 160.185 -124.303 160.443 -127.254 158.734 C-129.956 156.573 -131.397 155.06 -132.5 151.75 C-132.835 146.283 -131.966 141.844 -130.375 136.688 C-130.156 135.957 -129.936 135.226 -129.71 134.473 C-127.496 127.328 -124.631 120.538 -121.5 113.75 C-122.014 113.912 -122.529 114.075 -123.059 114.242 C-126.259 114.908 -129.295 114.882 -132.562 114.875 C-133.177 114.876 -133.177 114.876 -136.285 114.883 C-139.5 114.75 -139.5 114.75 -142.5 113.75 C-142.5 111.77 -142.5 109.79 -142.5 107.75 C-141.739 107.601 -140.977 107.452 -140.193 107.298 C-136.719 106.585 -133.268 105.794 -129.812 105 C-129.213 104.883 -129.213 104.883 -126.182 104.293 C-125.025 104.016 -123.868 103.739 -122.676 103.453 C-121.613 103.223 -120.55 102.992 -119.454 102.755 C-114.55 99.427 -113.438 94.18 -111.5 88.75 C-110.755 86.842 -110.006 84.936 -109.252 83.032 C-108.498 81.081 -107.747 79.129 -106.996 77.176 C-106.165 75.023 -105.333 72.87 -104.502 70.717 C-103.215 67.38 -101.93 64.042 -100.645 60.705 C-99.389 57.444 -98.13 54.185 -96.871 50.926 C-96.492 49.938 -96.113 48.95 -95.722 47.933 C-88.549 29.377 -88.549 29.377 -84.5 26.75 C-80.221 25.6 -76.758 25.295 -72.562 26.812 C-69.746 29.458 -69.119 30.899 -68.5 34.75 C-69.292 42.937 -71.969 50.351 -75 57.938 C-75.435 59.047 -75.87 60.157 -76.318 61.3 C-80.874 72.854 -85.652 84.317 -90.5 95.75 C-89.554 95.568 -88.608 95.386 -87.633 95.199 C-86.297 94.945 -84.961 94.691 -83.625 94.438 C-81.565 94.044 -79.505 93.647 -77.452 93.218 C-74.996 92.829 -72.689 92.642 -70.212 92.52 C-58.657 91.692 -58.657 91.692 -54.974 88.376 C-51.733 84.128 -49.919 79.191 -48 74.25 C-47.347 72.727 -46.686 71.207 -46.018 69.69 C-44.715 66.716 -43.443 63.733 -42.197 60.735 C-40.169 55.905 -37.822 51.283 -35.312 46.688 C-34.932 45.979 -34.552 45.27 -34.161 44.539 C-33.38 43.083 -32.596 41.629 -31.809 40.176 C-30.275 37.333 -28.763 34.479 -27.25 31.625 C-26.105 29.479 -24.959 27.333 -23.812 25.188 C-23.551 24.693 -23.551 24.693 -22.228 22.193 C-9.762 -0.976 -9.762 -0.976 0 0 Z " fill="#FFFFFF" transform="translate(529.5,0.25)"/>
<path d="M0 0 C0.663 0.169 1.325 0.338 2.008 0.512 C4.23 1.465 5.382 2.412 6.875 4.312 C8.11 10.692 6.859 13.96 3.25 19.312 C-3.666 28.81 -11.369 37.773 -19.012 46.688 C-51.223 84.265 -51.223 84.265 -52.375 98.375 C-52.293 99.014 -52.21 99.654 -52.125 100.312 C-40.348 98.566 -30.02 88.704 -21.125 81.312 C-20.454 80.756 -19.782 80.2 -19.091 79.627 C-17.03 77.909 -14.981 76.177 -12.938 74.438 C-12.302 73.902 -11.666 73.367 -11.01 72.816 C-6.47 68.893 -3.333 65.803 -2.812 59.562 C-2.069 51.973 3.585 45.767 9.281 41.078 C19.909 33.844 31.773 28.324 44.875 29.312 C49.652 30.284 53.074 31.167 55.875 35.312 C56.125 39.062 56.125 39.062 55.875 42.312 C53.259 43.218 51.845 43.306 49.086 42.746 C40.722 41.617 32.54 46.584 26.066 51.457 C20.742 55.965 16.95 60.601 14.875 67.312 C15.035 75.167 20.543 80.222 25.582 85.676 C28.694 87.897 31.082 88.115 34.875 88.312 C37.777 87.824 37.777 87.824 40.812 87 C64.917 81.374 100.127 78.672 122.5 91.75 C126.61 94.637 129.289 97.437 130.812 102.312 C130.889 105.987 130.165 107.47 127.875 110.312 C125.688 111.625 125.688 111.625 123.875 112.312 C124.205 111.322 124.535 110.332 124.875 109.312 C125.351 105.026 125.44 103.065 122.812 99.562 C111.947 91.24 97.525 91.94 84.438 92 C84.066 92 84.066 92 82.184 92.001 C70.569 92.025 59.312 92.807 47.874 94.949 C44.885 95.493 41.884 95.902 38.875 96.312 C39.236 96.762 39.597 97.212 39.969 97.676 C43.514 102.59 44.746 106.565 44.402 112.641 C43.242 118.52 40.045 121.738 35.297 125.184 C18.772 135.456 -3.458 141.251 -22.793 137.004 C-27.261 135.679 -30.148 133.51 -33.062 129.938 C-34.488 126.415 -34.332 124.932 -33.125 121.312 C-26.956 108.974 -11.183 103 0.875 98.312 C2.084 97.825 3.293 97.338 4.539 96.836 C13.417 93.312 13.417 93.312 16.875 93.312 C14.697 89.16 12.269 86.777 8.562 83.938 C4.062 80.374 0.42 76.815 -3.125 72.312 C-4.814 74.145 -6.501 75.978 -8.188 77.812 C-8.696 78.363 -9.204 78.914 -9.727 79.482 C-12.398 82.389 -14.988 85.329 -17.5 88.375 C-26.897 99.14 -40.985 111.246 -55.633 112.648 C-56.826 112.661 -58.02 112.674 -59.25 112.688 C-60.449 112.716 -61.648 112.744 -62.883 112.773 C-66.125 112.312 -66.125 112.312 -68.504 110.59 C-71.843 105.899 -71.455 99.726 -70.688 94.188 C-70.595 93.713 -70.595 93.713 -70.125 91.312 C-70.538 91.737 -70.95 92.161 -71.375 92.598 C-91.097 112.628 -91.097 112.628 -104.125 113.312 C-107.247 112.648 -108.532 111.842 -110.875 109.75 C-113.664 104.311 -113.476 98.168 -112.125 92.312 C-115.341 94.651 -117.903 97.153 -120.438 100.188 C-126.35 107.057 -134.107 113.189 -143.297 114.66 C-147.714 114.851 -150.717 114.119 -154.125 111.312 C-156.379 108.414 -156.545 105.326 -156.438 101.707 C-154.041 83.348 -140.612 66.288 -127.125 54.312 C-124.259 52.879 -122.312 53.006 -119.125 53.312 C-115.75 54.875 -115.75 54.875 -113.125 57.312 C-112.47 60.852 -112.543 63.269 -114.319 66.452 C-116.014 68.847 -117.794 71.145 -119.625 73.438 C-120.914 75.113 -122.199 76.791 -123.48 78.473 C-124.106 79.291 -124.732 80.11 -125.376 80.954 C-129.412 86.397 -133.094 92.25 -136.125 98.312 C-122.405 96.131 -105.883 73.781 -98.125 63.312 C-92.44 55.324 -87.317 47.014 -82.225 38.638 C-61.883 5.191 -61.883 5.191 -52.125 0.312 C-46.748 -0.237 -42.484 -0.229 -38.125 3.312 C-36.557 6.448 -36.313 8.955 -37.125 12.312 C-39.417 16.268 -42.266 19.754 -45.125 23.312 C-46.858 25.497 -48.585 27.686 -50.312 29.875 C-50.771 30.454 -51.23 31.033 -51.702 31.629 C-57.771 39.333 -63.482 47.294 -69.125 55.312 C-69.572 55.948 -70.02 56.583 -70.48 57.237 C-75.921 65.026 -80.83 73.075 -85.562 81.312 C-86.071 82.197 -86.58 83.082 -87.104 83.993 C-89.754 88.674 -92.123 93.319 -94.125 98.312 C-86.116 95.172 -80.63 89.594 -74.555 83.696 C-73.425 82.603 -72.277 81.53 -71.121 80.465 C-61.169 71.088 -53.455 59.102 -45.523 48.039 C-9.23 -2.552 -9.23 -2.552 0 0 Z M14.25 102.625 C13.884 102.757 13.884 102.757 12.034 103.428 C6.062 105.683 0.356 108.383 -5.312 111.312 C-6.102 111.715 -6.891 112.118 -7.704 112.532 C-12.689 115.198 -16.402 118.037 -20.125 122.312 C-20.125 122.972 -20.125 123.632 -20.125 124.312 C-13.009 127.871 -2.023 123.731 5.187 121.394 C13.31 118.609 21.484 114.833 26.75 107.812 C27.875 105.312 27.875 105.312 27.562 103 C27.336 102.443 27.109 101.886 26.875 101.312 C22.191 99.82 18.693 100.988 14.25 102.625 Z " fill="#FFFFFF" transform="translate(653.125,35.6875)"/>
<path d="M0 0 C15.168 -0.423 31.814 2.161 43.414 12.68 C48.838 18.436 50.805 24.733 51.07 32.559 C50.604 47.104 42.659 59.021 32.695 69.121 C15.428 85.249 -6.272 94.189 -29.992 94.309 C-31.275 94.323 -32.557 94.337 -33.879 94.352 C-37.125 94.133 -38.548 93.642 -41.305 92.121 C-41.632 83.85 -40.873 76.56 -38.805 68.559 C-38.541 67.497 -38.278 66.436 -38.007 65.342 C-35.641 56.001 -32.878 46.784 -30.074 37.567 C-27.636 29.48 -25.646 21.463 -24.305 13.121 C-27.275 13.121 -30.245 13.121 -33.305 13.121 C-32.129 8.419 -31.266 7.71 -27.305 5.121 C-18.419 1.922 -9.388 0.493 0 0 Z M-5.305 12.121 C-5.223 12.902 -5.142 13.683 -5.059 14.488 C-4.322 27.991 -8.468 40.301 -12.305 53.121 C-12.603 54.122 -12.902 55.122 -13.209 56.153 C-15.393 63.452 -15.393 63.452 -16.438 66.803 C-17.705 70.897 -18.721 74.86 -19.305 79.121 C-3.16 77.17 12.572 64.098 22.695 52.121 C27.88 44.685 32.177 37.3 31.633 27.996 C30.371 22.781 28.274 19.765 23.832 16.934 C16.815 13.228 10.128 11.809 2.258 11.996 C1.526 12.005 0.795 12.014 0.041 12.023 C-1.741 12.047 -3.523 12.083 -5.305 12.121 Z " fill="#FFFFFF" transform="translate(330.3046875,46.87890625)"/>
<path d="M0 0 C3 1.562 3 1.562 5 4 C5.973 7.684 6.083 10.446 5.518 14.209 C4.963 18.271 4.839 22.246 4.832 26.336 C4.828 27.125 4.824 27.913 4.82 28.726 C4.81 31.276 4.81 33.825 4.812 36.375 C4.812 37.244 4.811 38.112 4.81 39.007 C4.811 51.76 5.285 64.328 6.562 77.023 C7.806 89.892 7.806 89.892 5.5 93.062 C1.936 94.399 -1.293 94.775 -5 94 C-9.806 90.475 -12.27 85.642 -13.427 79.872 C-13.733 77.646 -13.976 75.425 -14.188 73.188 C-14.269 72.425 -14.351 71.663 -14.436 70.877 C-15 65.512 -15 65.512 -15 63 C-19.72 63.521 -24.432 64.088 -29.142 64.697 C-30.742 64.897 -32.343 65.085 -33.946 65.26 C-48.974 66.916 -48.974 66.916 -53.285 71.758 C-54.234 73.142 -55.143 74.556 -56 76 C-56.845 77.169 -57.697 78.333 -58.555 79.492 C-59.331 80.618 -60.104 81.746 -60.875 82.875 C-70.951 97.3 -70.951 97.3 -78 102 C-83.548 102.197 -88.517 101.437 -93 98 C-91.638 94.933 -90.103 92.882 -87.688 90.562 C-87.401 90.285 -87.401 90.285 -85.949 88.879 C-85.628 88.569 -85.628 88.569 -84 87 C-80.339 83.44 -76.996 79.744 -73.75 75.812 C-73.304 75.279 -72.858 74.746 -72.398 74.197 C-69.13 70.261 -69.13 70.261 -68 68 C-68.495 67.835 -68.495 67.835 -71 67 C-70.816 64.641 -70.816 64.641 -70 62 C-67.777 60.734 -67.777 60.734 -64.938 59.75 C-58.484 57.051 -55.208 53.473 -51 48 C-50.163 46.931 -49.324 45.864 -48.484 44.797 C-47.103 43.039 -45.725 41.28 -44.354 39.515 C-40.477 34.538 -36.411 29.748 -32.279 24.981 C-29.359 21.606 -26.517 18.191 -23.75 14.688 C-11.028 -1.354 -11.028 -1.354 0 0 Z M-18 29 C-39 51.03 -39 51.03 -39 56 C-35.353 55.528 -31.708 55.046 -28.062 54.562 C-27.022 54.428 -25.981 54.293 -24.908 54.154 C-24.414 54.088 -24.414 54.088 -21.91 53.754 C-20.994 53.633 -20.077 53.513 -19.133 53.389 C-17 53 -17 53 -16 52 C-15.749 48.904 -15.815 45.793 -15.812 42.688 C-15.806 42.253 -15.806 42.253 -15.775 40.057 C-15.773 39.217 -15.772 38.377 -15.77 37.512 C-15.765 36.743 -15.761 35.974 -15.757 35.182 C-16.029 32.743 -16.786 31.116 -18 29 Z " fill="#FFFFFF" transform="translate(276,48)"/>
<path d="M0 0 C1.188 2.376 1.144 4.197 0.641 6.781 C-1.696 13.739 -6.237 20.448 -12.062 24.875 C-15.027 25.486 -16.984 25.285 -20.062 24.875 C-22.664 22.274 -22.45 21.005 -22.562 17.375 C-22.449 10.615 -20.415 6.006 -16.062 0.875 C-11.049 -2.939 -5.586 -3.047 0 0 Z " fill="#FFFFFF" transform="translate(557.0625,60.125)"/>
<path d="M0 0 C10.556 0 10.556 0 16 3 C18.187 6.281 18.218 6.806 17.75 10.5 C17.662 11.273 17.575 12.047 17.484 12.844 C17 15 17 15 15 18 C16.98 21.3 18.96 24.6 21 28 C17.812 28.5 17.812 28.5 14 28 C12.398 26.054 11.337 24.113 10.238 21.848 C9 20 9 20 5 19 C5 21.97 5 24.94 5 28 C3.35 28 1.7 28 0 28 C0 18.76 0 9.52 0 0 Z M5 5 C5 7.97 5 10.94 5 14 C6.155 13.835 6.155 13.835 12 13 C12.688 10.688 12.688 10.688 13 8 C11.875 6.188 11.875 6.188 10 5 C7.312 4.812 7.312 4.812 5 5 Z " fill="#FFFFFF" transform="translate(175,243)"/>
<path d="M0 0 C6.27 0 12.54 0 19 0 C19 1.65 19 3.3 19 5 C14.38 5 9.76 5 5 5 C5 7.31 5 9.62 5 12 C8.96 12 12.92 12 17 12 C17 13.65 17 15.3 17 17 C13.04 17 9.08 17 5 17 C5 19.31 5 21.62 5 24 C9.62 24 14.24 24 19 24 C19 25.32 19 26.64 19 28 C12.73 28 6.46 28 0 28 C0 18.76 0 9.52 0 0 Z " fill="#FFFFFF" transform="translate(591,243)"/>
<path d="M0 0 C6.27 0 12.54 0 19 0 C19 1.65 19 3.3 19 5 C14.38 5 9.76 5 5 5 C5 7.31 5 9.62 5 12 C8.96 12 12.92 12 17 12 C17 13.65 17 15.3 17 17 C13.04 17 9.08 17 5 17 C5 19.31 5 21.62 5 24 C9.62 24 14.24 24 19 24 C19 25.32 19 26.64 19 28 C12.73 28 6.46 28 0 28 C0 18.76 0 9.52 0 0 Z " fill="#FFFFFF" transform="translate(381,243)"/>
<path d="M0 0 C6.27 0 12.54 0 19 0 C19 1.65 19 3.3 19 5 C14.38 5 9.76 5 5 5 C5 7.31 5 9.62 5 12 C8.96 12 12.92 12 17 12 C17 13.65 17 15.3 17 17 C13.04 17 9.08 17 5 17 C5 19.31 5 21.62 5 24 C9.62 24 14.24 24 19 24 C19 25.32 19 26.64 19 28 C12.73 28 6.46 28 0 28 C0 18.76 0 9.52 0 0 Z " fill="#FFFFFF" transform="translate(219,243)"/>
<path d="M0 0 C0 1.32 0 2.64 0 4 C-27.007 4.851 -53.981 5.132 -81 5 C-81.33 4.01 -81.66 3.02 -82 2 C-75.994 0.713 -69.981 0.774 -63.867 0.684 C-62.68 0.663 -61.493 0.642 -60.27 0.621 C-57.753 0.577 -55.237 0.536 -52.72 0.497 C-48.937 0.438 -45.154 0.373 -41.371 0.307 C-27.58 0.072 -13.793 -0.063 0 0 Z " fill="#FFFFFF" transform="translate(156,257)"/>
<path d="M0 0 C26.73 0 53.46 0 81 0 C81.165 0.495 81.165 0.495 82 3 C54.666 4.114 27.353 4.109 0 4 C0 2.68 0 1.36 0 0 Z " fill="#FFFFFF" transform="translate(627,259)"/>
<path d="M0 0 C0.91 0.102 1.82 0.204 2.758 0.309 C3.456 0.392 4.155 0.476 4.875 0.562 C5.205 1.553 5.535 2.542 5.875 3.562 C5.545 4.222 5.215 4.882 4.875 5.562 C1.245 5.562 -2.385 5.562 -6.125 5.562 C-3.933 9.946 -3.296 10.299 0.938 12.188 C5.778 14.368 5.778 14.368 6.875 16.562 C7.221 20.299 7.408 22.682 5.438 25.938 C1.722 28.294 -1.765 28.66 -6.125 28.562 C-9.688 27.625 -9.688 27.625 -12.125 26.562 C-11.795 24.913 -11.465 23.262 -11.125 21.562 C-10.426 21.646 -9.728 21.73 -9.008 21.816 C-8.098 21.918 -7.188 22.02 -6.25 22.125 C-5.345 22.229 -4.44 22.334 -3.508 22.441 C-1.125 22.562 -1.125 22.562 0.875 21.562 C1.5 19.5 1.5 19.5 1.875 17.562 C1.009 17.315 0.142 17.067 -0.75 16.812 C-4.614 15.382 -8.178 13.509 -11.125 10.562 C-11.438 7.75 -11.438 7.75 -11.125 4.562 C-7.591 0.203 -5.448 -0.629 0 0 Z " fill="#FFFFFF" transform="translate(435.125,243.4375)"/>
<path d="M0 0 C2.436 2.436 3.267 4.669 4.602 7.848 C5.091 9.01 5.581 10.172 6.086 11.369 C6.212 11.672 6.212 11.672 6.851 13.204 C7.624 15.061 8.405 16.914 9.188 18.768 C13 27.85 13 27.85 13 29 C11.02 29 9.04 29 7 29 C6.34 26.69 5.68 24.38 5 22 C1.7 22 -1.6 22 -5 22 C-5.66 24.31 -6.32 26.62 -7 29 C-8.65 29 -10.3 29 -12 29 C-9.95 22.516 -7.539 16.255 -4.875 10 C-4.515 9.143 -4.156 8.286 -3.785 7.402 C-1.132 1.132 -1.132 1.132 0 0 Z M-1 12 C-1.33 13.65 -1.66 15.3 -2 17 C-0.68 17 0.64 17 2 17 C1.67 15.35 1.34 13.7 1 12 C0.34 12 -0.32 12 -1 12 Z " fill="#FFFFFF" transform="translate(515,242)"/>
<path d="M0 0 C2.436 2.436 3.267 4.669 4.602 7.848 C5.091 9.01 5.581 10.172 6.086 11.369 C6.212 11.672 6.212 11.672 6.851 13.204 C7.624 15.061 8.405 16.914 9.188 18.768 C13 27.85 13 27.85 13 29 C11.02 29 9.04 29 7 29 C6.34 26.69 5.68 24.38 5 22 C1.7 22 -1.6 22 -5 22 C-5.66 24.31 -6.32 26.62 -7 29 C-8.65 29 -10.3 29 -12 29 C-9.95 22.516 -7.539 16.255 -4.875 10 C-4.515 9.143 -4.156 8.286 -3.785 7.402 C-1.132 1.132 -1.132 1.132 0 0 Z M-1 12 C-1.33 13.65 -1.66 15.3 -2 17 C-0.68 17 0.64 17 2 17 C1.67 15.35 1.34 13.7 1 12 C0.34 12 -0.32 12 -1 12 Z " fill="#FFFFFF" transform="translate(272,242)"/>
<path d="M0 0 C6.27 0 12.54 0 19 0 C19 1.65 19 3.3 19 5 C16.69 5 14.38 5 12 5 C12 12.59 12 20.18 12 28 C10.35 28 8.7 28 7 28 C7 20.41 7 12.82 7 5 C4.69 5 2.38 5 0 5 C0 3.35 0 1.7 0 0 Z " fill="#FFFFFF" transform="translate(547,243)"/>
<path d="M0 0 C6.27 0 12.54 0 19 0 C19 1.65 19 3.3 19 5 C16.69 5 14.38 5 12 5 C12 12.59 12 20.18 12 28 C10.35 28 8.7 28 7 28 C7 20.41 7 12.82 7 5 C4.69 5 2.38 5 0 5 C0 3.35 0 1.7 0 0 Z " fill="#FFFFFF" transform="translate(465,243)"/>
<path d="M0 0 C1.65 0 3.3 0 5 0 C5 7.92 5 15.84 5 24 C9.29 24 13.58 24 18 24 C18 25.32 18 26.64 18 28 C12.06 28 6.12 28 0 28 C0 18.76 0 9.52 0 0 Z " fill="#FFFFFF" transform="translate(308,243)"/>
</svg>
